<svg width="1476" height="1050" viewBox="0 0 1476 1050" fill="none" xmlns="http://www.w3.org/2000/svg">
<g opacity="0.5">
<path opacity="0.5" d="M901.4 258.4C987.1 358.7 1079.4 464 1205.4 503C1249.4 516.6 1296 521.5 1338.3 539.8C1421.5 575.7 1478.3 665.6 1474.9 756.2C1470.5 875.6 1370.3 974.2 1258 1014.8C1145.7 1055.5 1022.7 1050.2 903.4 1044.4C826.9 1040.7 750.5 1037 674 1033.3C614.1 1030.4 554 1027.5 494.1 1030.7C416.9 1034.8 340.3 1049 263 1049.2C204.2 1049.4 142 1040 96.4998 1002.8C55.3998 969.1 33.5998 916.9 22.3998 865C10.7998 811.4 8.79978 755.7 16.4998 701.4C22.0998 662 32.6998 623.1 32.1998 583.4C31.5998 533.6 13.5998 485.9 5.49978 436.8C-9.10022 348.5 9.59979 255.2 57.0998 179.4C104.6 103.6 180.5 46.1 266.4 21C322.3 4.8 381 2 439.1 0.300003C646.3 -5.5 772.6 107.7 901.4 258.4Z" fill="#D1F2DB"/>
<g opacity="0.5">
<path opacity="0.5" d="M860.02 573.809L857.045 574.195L864.09 628.441L867.065 628.055L860.02 573.809Z" fill="#495869"/>
<path opacity="0.5" d="M901.264 582.696L878.076 632.238L880.793 633.51L903.981 583.968L901.264 582.696Z" fill="#495869"/>
<path opacity="0.5" d="M938.584 612.144L890.114 637.498L891.505 640.156L939.974 614.802L938.584 612.144Z" fill="#495869"/>
</g>
</g>
<path opacity="0.14" d="M238.5 950.7C238.8 953.2 239.6 955.7 241.2 957.9C273.6 980.8 307.4 984 345.5 981.9C373.2 980.4 400.8 982.4 428.4 984.8C451 986.8 475.2 992.8 497.6 992.4C556 991.4 614.9 985.1 673.2 981.4C711.9 979 750.7 976.5 789.5 976C880.9 974.7 972.3 979.3 1063.8 980C1080.5 980.1 1097.2 980.2 1113.8 981.5C1128.8 982.7 1143.7 984.8 1158.8 985.5C1199.3 987.5 1239.6 979.8 1279 970.7C1285.7 969.2 1293.6 966.2 1294.6 959.6C1295.7 952.3 1287.4 947.3 1280.3 944.8C1235.9 929.2 1187.6 929.3 1140.4 929.6C1059.8 930.1 979.2 930.5 898.6 931C868.6 931.2 838.5 931.3 808.5 929.8C778.7 928.3 749.5 924.5 720 922.6C699.5 921.3 678.5 922.6 657.9 922.6C616.3 922.6 574.8 922.7 533.2 922.8C450.1 922.9 366.9 923 283.8 923.1C272.3 923.1 260.2 923.3 250.4 929.2C242.8 933.5 237.6 942.6 238.5 950.7Z" fill="#00684E"/>
<g opacity="0.76">
<path opacity="0.16" d="M1265.5 950.1C1262.6 949.4 1259.3 949.2 1256.1 949C1239.9 947.9 1223.7 947.1 1207.5 946.2C1196.7 945.7 1185.9 945.1 1175.1 944.6C1168.6 944.3 1162.2 943.9 1155.7 943.6C1139.5 942.8 1123.3 941.9 1107.1 941.3C1099 941 1090.9 940.7 1082.8 940.5C1076.5 940.4 1070 940.6 1063.7 940.6C1033.8 940.7 1002.7 941.8 977.7 947.5C973.5 948.5 969.5 949.6 967.1 951.2C961.9 954.7 966.5 959.6 975 962.6C983.5 965.6 994.9 967 1006.1 968C1027.6 969.9 1049.5 970.5 1071.1 970.6C1080 970.6 1088.9 970.6 1097.8 970.5C1106.1 970.4 1113.9 969.9 1122.1 969.5C1139.2 968.6 1156.4 968 1173.8 967.6C1197 967.1 1221.3 967 1241.3 963.1C1250.9 961.2 1259.1 958.6 1266.6 955.7C1268.5 955 1270.5 954.1 1270.7 953.1C1270.7 952.8 1270.6 952.4 1270.2 952.1C1269.4 951.3 1267.6 950.6 1265.5 950.1Z" fill="#00684E"/>
</g>
<g opacity="0.76">
<path opacity="0.16" d="M751.6 954.5C747.8 953.9 743.5 953.7 739.2 953.5C718 952.5 696.7 951.8 675.5 951.1C661.4 950.6 647.2 950.2 633.1 949.7C624.6 949.4 616.2 949.1 607.7 948.9C586.5 948.2 565.2 947.5 544 947C533.4 946.7 522.7 946.5 512.1 946.4C503.9 946.3 495.3 946.6 487 946.7C447.8 947 407 948.3 374.2 954.2C368.7 955.2 363.4 956.3 360.3 957.9C353.5 961.4 359.5 966.3 370.6 969.2C381.7 972.1 396.7 973.5 411.3 974.4C439.5 976.2 468.2 976.6 496.5 976.5C508.2 976.5 519.8 976.3 531.5 976.2C542.3 976.1 552.6 975.5 563.3 975C585.7 974 608.3 973.2 631.1 972.7C661.6 972 693.4 971.7 719.6 967.7C732.2 965.8 742.9 963 752.8 960.1C755.3 959.4 758 958.5 758.1 957.4C758.2 957.1 757.9 956.7 757.5 956.4C756.6 955.7 754.3 955 751.6 954.5Z" fill="#00684E"/>
</g>
<path d="M500.4 704C487.6 662.6 467.2 624 456 582C455.6 580.6 444.8 579.7 440.8 579.7C434 579.7 427.1 580.7 420.6 582.4C411.9 584.6 395.2 589.8 395.7 601.4C395.8 603.2 401.2 619.7 404 628.5C407.1 638.3 411 647.9 415.1 657.3C424.7 679.2 436.4 701 452.7 718.6C443.7 752.7 446.7 788.9 450.7 823.5C452.9 842.5 456.3 861.1 460.7 879.7C464.9 897.2 467.7 916.3 476.6 932.1C483.1 943.6 496.1 940.5 496.1 939.1C496 929.2 494.9 919.3 494.2 909.4C493.5 898.8 493.3 888.2 493.3 877.7C493.2 856.9 493.9 836.1 494 815.3C494 805.2 494.4 795.2 495.1 785.1C495.8 775.2 497.2 765.3 497.7 755.4C498.6 739.1 501.3 704 500.4 704Z" fill="#000202"/>
<path d="M620 893C617.2 883.5 614.8 873.9 612.7 864.2C607.9 842.7 603.6 821.1 599.8 799.4C597.9 788.9 596.8 778.2 595.3 767.6C593.8 756.9 591.7 746.3 589.5 735.7C587.6 726.6 586.2 717.9 585.9 708.6C585.7 702.1 583.5 688.3 583.2 687.4C575.7 661.7 565.7 636.9 557.4 611.5C554 601.2 550.2 591 547.1 580.5C545 573.4 542.7 565 537.6 559.3C537.9 558.9 537.9 558.4 537.6 557.9C534.4 553.7 529 553.1 524.1 553.3C516.9 553.6 509.7 555.8 503 558.5C496.5 561.1 490.2 564.5 484.9 569C481.6 571.8 479.1 581.2 479.4 581.4C479.7 589 483.8 596.8 486.9 603.4C491.8 614.1 496.3 624.9 501.7 635.4C507.5 646.7 514.1 657.5 519.5 668.9C524 678.4 527.6 688.4 533.6 697.1C531.6 704.8 533.3 713 534.8 720.6C536.7 730.4 538.4 740.3 540.3 750.2C544.4 771.4 549.4 792.3 557.3 812.5C564.9 831.9 572.3 851.4 581.1 870.3C588.3 885.7 596 902.4 608 914.8C607.4 915.5 607.5 916.8 608.6 917.2C613.4 919 619 920 624.2 920.2C625 920.2 625.6 919.5 625.6 918.8C624.9 910 622.4 901.4 620 893Z" fill="#000202"/>
<path d="M592.6 475.6C592.4 475.1 592.2 474.7 592 474.3C591.5 473.5 590.9 472.8 590.2 472.2C588.3 470.2 586.5 468.1 584.5 466.2C583.2 464.9 580.8 464.4 579 464.1C578.4 464 577.7 464 577.1 464C575 463.9 572.9 463.9 570.8 463.8C569 463.8 567 463.7 565.6 464.8C564.2 465.9 563.6 467.7 563.2 469.4C562.8 471.1 562.4 472.9 562.8 474.7C563.2 476.2 564.2 477.4 565.2 478.6C565.6 479.1 566 479.6 566.5 479.9C566.9 480.2 567.4 480.4 567.8 480.6C570.5 482 572 484.9 573.7 487.4C574.2 488.1 574.7 488.8 575.4 489.1C576.1 489.4 577.2 489.3 577.6 488.6C577.7 488.4 577.8 488.1 577.8 487.8C578.1 484.7 576.3 481.8 574.5 479.3C576.8 479.3 579 480.8 580.2 482.9C581.4 484.9 581.8 487.3 581.9 489.7C581.9 490.4 582 491.2 582.2 491.8C582.4 492.3 582.7 492.8 583 493.3C583.3 493.8 583.7 494.4 584.3 494.8C584.8 495.1 585.4 495.2 585.9 495.2C586.7 495.3 587.5 495.4 588.3 495.3C590.5 495.1 592.6 493.7 593.8 491.8C595 489.9 595.3 487.5 595.1 485.3C594.9 483.6 594.5 481.9 594 480.3C593.7 479.3 593.5 478.4 593.2 477.5C593 476.8 592.8 476.2 592.6 475.6Z" fill="#D87625"/>
<path d="M576.7 442.9C572 440.5 567.7 437.1 563.1 434.4C543.9 423.1 525.6 410.6 507.3 398C498.6 392 464.9 363 455.7 355.4C447.3 348.5 439.7 340.6 431 334C424.5 329.1 411.5 319.1 410.5 318.5C406.1 315.9 400.6 312 395.2 312.5C388.8 313.1 389.2 321.8 389.6 326.3C390.6 335.8 395.1 344.9 398.8 353.6C402.4 362.2 406.4 370.6 411.3 378.5C422 395.7 439.4 408.1 454.9 420.7C471.4 434 487 448.6 504.6 460.4C513.2 466.2 522.4 471.8 532 475.9C540.3 479.5 548.4 479.2 556.9 476.6C563.9 474.5 570.1 470.8 576.2 467C581.1 464 592.8 457.3 594.6 451.7C595 450.7 579.6 444.4 576.7 442.9Z" fill="#025B42"/>
<path d="M354.2 142C350.4 134.4 343.7 128.1 337 123.1C323.2 112.6 306 109 288.9 109.3C269.5 109.6 249.9 113.4 232.5 122C223.4 126.5 214.8 131 205 134.1C195.3 137.1 185.3 138.9 175.2 139.8C166 140.6 156.8 140.4 147.9 143.3C141.9 145.2 131.9 150.3 131.4 157.7C130.9 164.3 138.1 168.4 143.1 171C146 172.5 149.2 173.5 151.6 175.8C153.4 177.4 153.3 180 151.8 181.8C150.5 183.3 147.9 183.6 146.1 183.7C143 184 139.8 183.7 136.7 183.8C131.2 184.1 125.7 184.2 120.1 184.7C112.7 185.3 105.7 186.7 99.0002 189.7C88.9002 194.3 76.9002 202.1 73.0002 213C68.1002 226.4 86.0002 233.9 96.3002 235.1C105.1 236.1 113.6 234.1 122.1 232C126.5 230.9 131 229.8 135.5 229.2C139.8 228.6 144.7 228.2 148.7 230.3C155.5 233.9 152.6 243 148.8 247.6C144 253.4 137.4 257.6 132.6 263.4C128.6 268.2 126 274.5 128.3 280.7C130 285.1 134.7 286.2 138.9 285.5C143.9 284.6 148.8 282.3 152.9 279.4C156.9 276.7 160.9 274.3 165.9 274C171.3 273.7 176.3 276.9 180.4 280.2C193.8 291 209.6 301 227.5 295.9C243.6 291.3 255.3 275.9 267 264.8C276.4 255.9 286.9 247.6 299.8 245.1C305.1 244.1 310.6 245.3 315.8 243.8C317.8 243.2 319.1 241.5 319.9 239.7C320.8 237.6 318.9 235.1 317.9 233.5C313.3 226.7 311.7 218.2 311 210.2C310.4 203.1 310.2 195.5 311.8 188.6C313.4 181.5 318.3 176.4 325.3 174.7C330.6 173.4 336.9 174.2 341.7 177.1C341.5 177.6 341.5 178.1 341.9 178.6C344.5 181.7 349.2 185.5 352.4 180.9C355.4 176.5 355.7 170.4 356.6 165.3C358.3 156.8 357.9 149.5 354.2 142Z" fill="#002843"/>
<path d="M344.8 167.7C340.2 162 333.8 156.4 326.2 155.5C322.3 155 318.6 155.8 315 157.4C310.4 159.5 307.3 164.1 304.6 168.2C304.5 168.4 304.4 168.5 304.4 168.7C301.1 172.5 298.5 176.9 296.7 181.8C295.3 185.7 294.7 189.4 294.7 193.5C294.7 198.1 294.9 202.1 291.2 205.3C289.6 206.7 287.6 208.4 287.4 210.7C287.1 213.6 288.6 216.3 291 218C293.5 219.7 296.9 219.3 299.5 220.7C301 221.5 302 224.1 302.7 225.5C303.7 227.5 304.6 229.5 305.8 231.4C310.1 238.2 319.1 242.5 326.6 244.4C333.2 246.1 340.2 245.7 346.2 242.4C357 236.5 361 222.7 361.5 211.3C362.2 195.6 354.5 179.7 344.8 167.7Z" fill="#FF9739"/>
<path d="M533.7 948.1C533.5 947.8 533.1 947.6 532.8 947.4C530.6 946.2 528.1 946 525.7 945.4C522.6 944.6 519.8 943.3 516.9 942C511.8 939.8 506.5 938 501.2 936.1C499.9 935.7 498.4 935.1 497.1 935.2C496.1 935.3 495.3 935.7 494.3 935.8C491.4 936 488.5 936.4 485.6 937C484.3 937.3 477.1 937.8 477.9 939.9C478.2 940.6 478.9 941 479.6 941.3C482.4 942.6 485.3 943.9 488.1 945.2C489.5 945.8 490.9 946.5 492.3 947.1C500.2 950.2 508.7 951 517.2 951.7C518.9 951.9 520.6 952 522.3 952.2C525 952.4 527.7 951.9 530.4 951.6C531.3 951.5 532.3 951.4 533.1 950.8C533.9 950.3 534.4 949.2 533.9 948.3C533.8 948.2 533.8 948.1 533.7 948.1Z" fill="#FF9739"/>
<path d="M658.4 923.9C658.4 923.8 658.3 923.6 658.3 923.6C658.2 923.4 657.9 923.4 657.7 923.3C652.6 922.4 647.2 922.7 642.2 921.3C640.9 920.9 639.5 920.4 638.2 919.9C632.4 917.6 626.8 915 620.7 913.9C618.1 913.4 615.3 913.1 612.7 913.6C610.8 913.9 608.6 915 607.5 916.6C605.7 919.1 608.7 921.3 610.4 922.9C611.5 923.9 612.7 925 614.1 925.6C615.7 926.3 617.6 926.4 619.4 926.5C624.4 926.6 629.4 926.5 634.4 926.8C640.5 927.3 646.6 928.5 652.7 928.3C654.1 928.2 655.7 928.1 656.8 927.2C657.7 926.5 658.3 925.4 658.5 924.3C658.4 924.1 658.4 924 658.4 923.9Z" fill="#FF9739"/>
<path d="M574.5 456.2C574.5 456.2 574.4 456.2 574.3 456.1C564.6 453.2 552.2 449 543.5 443.9C534.8 438.8 526.4 433.6 518.2 427.7C501.1 415.3 486.2 400.2 470.7 385.9C454.8 371.3 440 356.1 426.6 339.2C419.6 330.4 413 321.4 406.8 312.1C401.1 303.5 395.9 294.9 389.1 287.1C385.2 282.6 381.2 278 376.8 274C373.2 270.7 364.5 263.5 363.8 264C363.7 263.4 363.2 263 362.5 263C323 263.7 323.1 314.3 323.2 343.9C322.1 364.9 325.4 385.9 328.2 406.6C331.3 428.9 334 451.2 338 473.3C341.8 494.6 346.9 515.6 354.2 536C357.8 546.2 361.9 556.2 365.7 566.3C369.5 576.3 373.6 586 378.5 595.4C382.2 602.5 386.4 609.4 389.8 616.6C392.2 621.7 396.7 634.4 398.3 634.4C398.8 634.4 399.4 634.4 399.9 634.4C400.2 634.5 400.5 634.5 400.8 634.4C428.7 633.7 456.5 624.4 480.7 610.9C494.8 603.1 507.9 593.6 521.1 584.4C533.9 575.4 547.9 568.3 560.5 559.1C561 558.7 561.2 558.2 561.1 557.7C562 557.2 562.3 555.9 561.2 555.3C545.7 547.1 532.5 535.8 519.1 524.7C512.5 519.2 506.7 512.9 500.4 507.2C495.6 502.9 490 498.9 486.6 493.2C486.6 493.1 486.7 493.1 486.7 493C506.8 505.7 529.1 514.9 553 517.5C555.5 517.8 558.7 515.1 557.8 515C558.3 494.5 568.5 476.5 576 457.8C576.5 456.7 575.5 456 574.5 456.2Z" fill="#00684E"/>
<path d="M326.7 190.6C326.3 189.9 325.5 189.9 324.8 190.1C321.5 191.2 322.5 193.1 322.8 193.8C323 194.6 323.8 194.9 324.5 194.8C325.4 194.6 326.2 194.2 326.8 193.4C327.3 192.5 327.1 191.4 326.7 190.6Z" fill="#FFD0A6"/>
<path d="M346.1 185.4C345.9 185.2 345.6 184.9 345.4 184.7C344.9 184.2 344 184.2 343.4 184.7C342.9 185.2 342.9 186.1 343.4 186.7C343.6 186.9 343.9 187.2 344.1 187.4C344.6 187.9 345.6 187.9 346.1 187.4C346.6 186.9 346.6 186 346.1 185.4Z" fill="#FFD0A6"/>
<path d="M338.7 213.7C338.6 213.2 337.9 211.4 337.5 211.2C332.5 209.6 331.4 212.8 330.7 214.7C330.1 216.2 330.6 217.8 331.6 219C332.4 220 333.8 220.6 335.1 220.5C336.9 220.5 338.1 219.4 338.7 217.8C339.3 216.6 339 215 338.7 213.7Z" fill="#FFD0A6"/>
<path d="M591.4 485C589.6 484.9 588 485.5 586.3 485.7C584.8 485.8 583.7 486.2 582.2 486.6C578.8 487.6 575.2 487.9 571.7 487.3C571.4 487.3 571 487.2 570.8 487C570.6 486.8 570.5 486.4 570.7 486.1C572.3 485.7 573.7 484.8 575 483.8C575.9 483.1 576.8 482.2 576.7 481C576.7 480.8 576.6 480.6 576.4 480.4C575.9 479.7 574.8 480.1 574 480.4C570.9 481.8 567.5 482.7 564.1 483C562.1 483.2 559.8 483.2 558.1 484.5C556.7 485.6 555.4 487.4 554.6 489C552.8 492.5 552.8 496.6 554.7 500.1C560.4 510.1 575.5 505.6 583.2 501.2C587 499 591.2 496.9 593.8 493.2C595.8 490.7 595.2 485.3 591.4 485Z" fill="#FF9739"/>
<path d="M574.5 456.2C574.5 456.2 574.4 456.2 574.3 456.1C564.6 453.2 552.2 449 543.5 443.9C534.8 438.8 526.4 433.6 518.2 427.7C501.1 415.3 486.2 400.2 470.7 385.9C454.8 371.3 440 356.1 426.6 339.2C419.6 330.4 413 321.4 406.8 312.1C401.1 303.5 395.9 294.9 389.1 287.1C385.2 282.6 381.2 278 376.8 274C375.4 272.7 373.2 270.9 371.1 269.1C370.5 268.9 369.8 268.7 369.2 268.5C368.1 268.4 366.9 268.3 365.8 268.3C364 268.6 362.3 269 360.6 269.4C358.5 270.3 356.6 271.4 354.6 272.5C353 273.8 351.4 275.2 349.9 276.7C348.6 278.6 347.3 280.5 346.2 282.5C344.8 286 343.6 289.6 342.7 293.3C341.8 299.5 341.6 305.8 341.8 312C342.7 319.8 344.3 327.5 346.8 335C356.7 361.2 369.5 386.7 385.2 409.9C395.6 424.3 407.3 437.5 420.7 449.2C441.5 466.4 464.1 481.5 487.6 494.8C487.2 494.3 486.9 493.8 486.6 493.2C486.6 493.1 486.7 493.1 486.7 493C506.8 505.7 529.1 514.9 553 517.5C555.5 517.8 558.7 515.1 557.8 515C558.3 494.5 568.5 476.5 576 457.8C576.5 456.7 575.5 456 574.5 456.2Z" fill="#09825F"/>
<path d="M319.4 203C319.1 202.3 318.3 201.7 317.5 201.5C316.4 200.7 314.8 200.5 313.6 201.3C312.3 202.1 311.5 203.4 311.5 205C311.5 206.4 312.3 208 313.6 208.6C314.3 209 315 209.2 315.8 209.1C316.5 209.1 317.4 208.9 318 208.5C318.2 208.3 318.6 208.1 318.8 207.8C319.4 207.1 319.4 207 319.8 206.1C320.2 205.1 319.8 204 319.4 203Z" fill="#FF630D"/>
<path d="M351.6 189C347.8 189 347.8 194.8 351.6 194.8C355.4 194.8 355.4 189 351.6 189Z" fill="#FF630D"/>
<path d="M1221.5 810.2C1221.2 809.6 1221 809.2 1220.7 808.8C1220.6 808.5 1220.4 808.2 1220 808C1219.8 807.8 1219.6 807.6 1219.4 807.4C1219 806.9 1218.4 806.8 1217.9 806.9C1201.7 798.3 1184.7 788.5 1166.1 787.2C1154 786.3 1137.4 786.2 1127.5 794.5C1124.5 797 1122 802 1124.6 805.5C1127.3 809.2 1133 809.9 1137.2 810.5C1149.4 812.1 1161.6 810.5 1173.8 810.3C1182.7 810.1 1191.1 809.7 1199.8 811.7C1206.4 813.2 1213.8 815.3 1220.4 812.8C1221.6 812.2 1222 811.2 1221.5 810.2Z" fill="#7F5A38"/>
<path d="M1299 806C1289 805.1 1279.4 808.6 1269.5 808.8C1258.4 809.1 1247.2 806.1 1236.2 804.9C1216.7 802.8 1199.6 812.7 1183.2 821.7C1163.4 832.5 1142 838 1120.3 843.7C1109.5 846.5 1075.6 853.3 1074.7 853.3C1051.2 853.4 1028.1 859 1006.4 867.8C990.7 874.1 973.9 881.6 961.6 893.5C957.1 897.8 952.9 902.6 949.4 907.8C946.8 911.6 944.1 916.4 945 921.2C945.9 926.2 951.9 927.3 956 927.5C959.2 927.7 962.3 925.5 964.8 923.8C968.6 921.3 971.9 918.4 975.7 915.9C979.8 913.2 984.8 911.3 989.3 909.4C994.5 907.2 999.9 905.6 1005.5 905.4C1007.5 905.4 1010.8 905.3 1012 907.3C1012.9 908.9 1011.3 911.9 1010.6 913.4C1006.7 921.8 995.6 933.9 1000.3 943.8C1007.1 958.2 1021.7 950.7 1031.1 943.5C1036.5 939.3 1041.5 934.3 1047.2 930.5C1057.1 923.8 1069.8 924.2 1081.2 924.2C1091.4 924.2 1101.1 923.4 1110.7 919.9C1119.6 916.6 1128.2 912.6 1137.2 909.5C1144.7 906.9 1155.5 903.2 1162.5 908.8C1168.7 913.7 1171.4 922 1178.9 925.7C1184.7 928.5 1193.6 927.5 1198.4 923.3C1200.7 921.2 1200.9 918 1200.2 915.2C1199.2 911.4 1194.8 907.8 1198.1 904.2C1202.6 899.3 1210 913.3 1211.9 916.1C1215.3 921.3 1221 925.8 1227.4 926.6C1239.5 927.9 1238.2 915.3 1235.9 905.8C1234.2 898.9 1229.7 892.9 1227.1 886.3C1223.8 878 1229.9 869.9 1235.9 863.4C1240.8 858.1 1247.4 854.4 1253.3 850.4C1259.6 846.2 1266.3 842.6 1272.7 838.6C1285.1 831 1296.7 821.9 1303 808.5C1303.8 806.7 1299.5 806.1 1299 806Z" fill="#FFA210"/>
<path d="M1038.7 852.9C1037.1 850.2 1035.2 847.9 1034.4 844.8C1033.2 840.6 1033.5 836.1 1034.5 831.9C1036 825.4 1036.6 818.9 1039.4 812.8C1040.8 809.6 1037.9 808.3 1036.3 808.5C1026.4 809.5 1019.9 822.2 1017.4 830.7C1014.5 840.5 1017.4 855.1 1025.7 861.7C1029.1 864.4 1033.6 866.2 1037.7 864.3C1042.6 862.1 1040.7 856.3 1038.7 852.9Z" fill="#7F5A38"/>
<path d="M1312.1 799.5C1311.5 798.8 1311 797.5 1309.7 797C1304.5 794.8 1298.1 796.9 1294.4 801C1290.3 805.5 1293.4 810.9 1299 811.9C1303.7 812.7 1309.3 810.3 1312.2 806.5C1313.3 805 1313.4 801.1 1312.1 799.5Z" fill="#7F5A38"/>
<path opacity="0.22" d="M500.4 704C487.6 662.6 467.2 624 456 582C455.6 580.6 444.8 579.7 440.8 579.7C434 579.7 427.1 580.7 420.6 582.4C411.9 584.6 395.2 589.8 395.7 601.4C395.8 603.2 401.2 619.7 404 628.5C407.1 638.3 411 647.9 415.1 657.3C424.7 679.2 436.4 701 452.7 718.6C443.7 752.7 446.7 788.9 450.7 823.5C452.9 842.5 456.3 861.1 460.7 879.7C464.9 897.2 467.7 916.3 476.6 932.1C483.1 943.6 496.1 940.5 496.1 939.1C496 929.2 494.9 919.3 494.2 909.4C493.5 898.8 493.3 888.2 493.3 877.7C493.2 856.9 493.9 836.1 494 815.3C494 805.2 494.4 795.2 495.1 785.1C495.8 775.2 497.2 765.3 497.7 755.4C498.6 739.1 501.3 704 500.4 704Z" fill="#000202"/>
<path opacity="0.22" d="M620 893C617.2 883.5 614.8 873.9 612.7 864.2C607.9 842.7 603.6 821.1 599.8 799.4C597.9 788.9 596.8 778.2 595.3 767.6C593.8 756.9 591.7 746.3 589.5 735.7C587.6 726.6 586.2 717.9 585.9 708.6C585.7 702.1 583.5 688.3 583.2 687.4C575.7 661.7 565.7 636.9 557.4 611.5C554 601.2 550.2 591 547.1 580.5C545 573.4 542.7 565 537.6 559.3C537.9 558.9 537.9 558.4 537.6 557.9C534.4 553.7 529 553.1 524.1 553.3C516.9 553.6 509.7 555.8 503 558.5C496.5 561.1 490.2 564.5 484.9 569C481.6 571.8 479.1 581.2 479.4 581.4C479.7 589 483.8 596.8 486.9 603.4C491.8 614.1 496.3 624.9 501.7 635.4C507.5 646.7 514.1 657.5 519.5 668.9C524 678.4 527.6 688.4 533.6 697.1C531.6 704.8 533.3 713 534.8 720.6C536.7 730.4 538.4 740.3 540.3 750.2C544.4 771.4 549.4 792.3 557.3 812.5C564.9 831.9 572.3 851.4 581.1 870.3C588.3 885.7 596 902.4 608 914.8C607.4 915.5 607.5 916.8 608.6 917.2C613.4 919 619 920 624.2 920.2C625 920.2 625.6 919.5 625.6 918.8C624.9 910 622.4 901.4 620 893Z" fill="#000202"/>
<path d="M1216 827.5C1215.4 827.3 1214.8 827.1 1214.2 827C1213.9 826.8 1213.4 826.7 1212.9 826.8C1211.5 826.6 1210.1 826.6 1208.6 826.8C1207.9 826.9 1199.9 828 1196.1 828.6C1190.1 829.6 1184.8 832.4 1179.6 835.5C1173.8 838.9 1168 842.2 1162.4 845.8C1157.2 849.2 1151.5 852.9 1148 858.1C1146.1 860.9 1146 865.4 1149.8 866.5C1153.1 867.5 1157.5 865.7 1160.6 864.6C1166.4 862.6 1172 859.9 1177.6 857.2C1189.2 851.5 1200.9 845 1211 836.9C1213.4 835 1216.8 832.4 1217.2 829.1C1217.3 828.4 1216.7 827.7 1216 827.5Z" fill="#7F5A38"/>
<path opacity="0.09" d="M137.4 167.4C139.3 168.7 141.3 169.8 143.1 170.8C144.7 170.7 146.2 170.5 147.8 170.1C152.4 169 157.4 168.2 161.8 166.3C166 164.5 170 162.4 174.2 160.6C194.4 152.1 217.2 149.4 238.8 148.1C248.8 147.5 258.9 147.7 268.7 149.5C274 150.5 279.3 151.6 284.3 153.5C288.7 155.1 293 157.2 297.4 158.9C305.7 162.1 314 163.8 322.4 161.6C328 160.1 332.9 157 335.7 151.6C344.8 125.5 317.3 121.2 313.3 120.4C308.6 119.4 303.9 118.8 299.2 118.3C278.6 115.9 258.1 120.7 239 128.5C229.2 132.6 219.4 136.8 209.4 140.3C199.2 143.9 189 145.9 178.4 147.7C172.6 148.7 166.8 149.8 161 150.3C155.6 150.8 150.1 150.9 144.8 152.2C141.1 153.1 138.4 154.9 136.3 158.1C134.2 161.3 133.9 162.1 136.2 165.2C136.6 165.9 137.1 166.6 137.4 167.4Z" fill="white"/>
<path d="M595 493C736.6 538.2 697 605 811 635" stroke="#495869" stroke-width="4" stroke-miterlimit="10"/>
<path d="M915 683C1028.5 722.5 1001.5 786.5 1140 828C1152.5 835.5 1234.5 880.5 1235 864" stroke="#495869" stroke-width="5" stroke-miterlimit="10"/>
</svg>
